# xmcd
#
# Track frame offsets:
#	150
#	15930
#	31915
#	49932
#	79260
#	93347
#	108880
#	123707
#	138457
#	153797
#	169670
#	186207
#	203740
#	218765
#	234077
#	250010
#	267112
#	284600
#
# Disc length: 4016 seconds
# Revision: 0
# Processed by: cddbd v1.5.2PL0 Copyright (c) Steve Scherf et al.
# Submitted via: dBpowerAMP V12.0
#
DISCID=ea0fae12
DTITLE=Various Artist - Stock Aitken Waterman Diamonds
DYEAR=1987
DGENRE=Dance
TTITLE0=Rick Astley - Never Gonna Give You Up [7” Mix]
TTITLE1=Donna Summer - This Time I Know It's For Real [7” Mix]
TTITLE2=Kylie Minogue - Je Ne Sais Pas Pourquoi [7” Version]
TTITLE3=Mel and Kim - Respectable [Full Album Version]
TTITLE4=Rick Astley - My Arms Keep Missing You [7” Version]
TTITLE5=Jason Donovan - Too Many Broken Hearts [Edit]
TTITLE6=Boy Krazy - That’s What Love Can Do ’93 [Radio]
TTITLE7=Cliff Richard - I Just Don’t Have The Heart [7” Mix]
TTITLE8=Kylie Minogue - I Should Be So Lucky [Single Version]
TTITLE9=Bananarama - Love In The First Degree [7” Mix]
TTITLE10=Boy Krazy - On A Wing And A Prayer [Original Mix]
TTITLE11=Kylie Minogue and Jason Donovan - Especially For You [Single Version]
TTITLE12=Sonia - You’ll Never Stop Me Loving You [7” Version]
TTITLE13=Rick Astley - Together Forever [Album Version]
TTITLE14=Sybil - When I’m Good And Ready [7” Version]
TTITLE15=Kylie Minogue - Hand On Your Heart [Single Version]
TTITLE16=Kylie Minogue - Better The Devil You Know [7” Mix]
TTITLE17=Jason Donovan - Nothing Can Divide Us [7” Version]
EXTD=
EXTT0=
EXTT1=
EXTT2=
EXTT3=
EXTT4=
EXTT5=
EXTT6=
EXTT7=
EXTT8=
EXTT9=
EXTT10=
EXTT11=
EXTT12=
EXTT13=
EXTT14=
EXTT15=
EXTT16=
EXTT17=
PLAYORDER=
